<svg width="21" height="20" viewBox="0 0 21 20" fill="none" xmlns="http://www.w3.org/2000/svg">
<g clip-path="url(#clip0_1734_61)">
<path d="M13.8498 2.93051C13.7338 2.92798 13.6184 2.93599 13.5055 2.95411C12.8284 3.06283 12.2332 3.529 12.0034 4.20492C11.9535 4.35181 11.9084 4.49875 11.871 4.64763C11.2994 4.59614 10.8215 4.5866 10.5253 4.5866C10.2292 4.5866 9.75129 4.59614 9.17968 4.64763C9.14233 4.49901 9.09713 4.35237 9.04726 4.20574C8.81751 3.52982 8.22235 3.06364 7.54518 2.95492C7.31946 2.91869 7.08426 2.92268 6.85083 2.9712C5.91437 3.16595 4.57693 3.54381 3.52224 4.38559C3.51087 4.3947 3.49983 4.4042 3.48913 4.41407C3.15626 4.71939 2.92668 5.13166 2.64333 5.7129C2.35998 6.29414 2.0661 7.02532 1.79587 7.8589C1.25543 9.52604 0.811035 11.5991 0.811035 13.654C0.811063 13.7615 0.839283 13.8671 0.892967 13.9608C1.88684 15.695 4.04456 16.3525 5.36612 16.6146C6.09512 16.7591 6.84609 16.4647 7.28118 15.8716L7.80504 15.1571C8.58807 15.3183 9.49451 15.4248 10.5253 15.4248C11.5562 15.4248 12.4626 15.3183 13.2457 15.1571L13.7687 15.8708C14.2036 16.4646 14.9555 16.7583 15.6846 16.6138C17.0061 16.3517 19.163 15.6941 20.1569 13.96C20.2106 13.8663 20.2388 13.7607 20.2388 13.6532C20.2388 11.5983 19.7953 9.52518 19.2548 7.85808C18.9846 7.02453 18.6899 6.29333 18.4065 5.71209C18.1232 5.13084 17.8934 4.71858 17.5607 4.41326C17.55 4.40339 17.539 4.39389 17.5276 4.38478C16.473 3.54305 15.136 3.16514 14.199 2.97039C14.0823 2.94613 13.9658 2.93304 13.8498 2.93051ZM13.8175 4.1797C13.8564 4.18087 13.8962 4.18529 13.9359 4.19353C14.7639 4.36563 15.9265 4.73218 16.7033 5.34262C16.7555 5.39446 17.0128 5.74469 17.2603 6.25245C17.5121 6.76895 17.789 7.4532 18.0432 8.23731C18.5342 9.75173 18.9214 11.6425 18.9486 13.4595C18.2455 14.5109 16.5276 15.1711 15.433 15.3882C15.1909 15.4362 14.9505 15.3445 14.8007 15.14L14.5549 14.8055C14.8093 14.7206 15.0486 14.6325 15.2617 14.5435C16.327 14.0985 16.916 13.6133 16.916 13.6133C16.9796 13.56 17.0318 13.495 17.0698 13.4218C17.1077 13.3487 17.1307 13.2689 17.1373 13.1871C17.1439 13.1053 17.1341 13.0229 17.1083 12.9448C17.0826 12.8667 17.0415 12.7944 16.9873 12.7319C16.9331 12.6694 16.8669 12.6181 16.7926 12.5807C16.7182 12.5434 16.6371 12.5209 16.5538 12.5144C16.4706 12.5079 16.3869 12.5176 16.3075 12.5429C16.228 12.5682 16.1545 12.6087 16.0909 12.662C16.0909 12.662 15.6894 13.0075 14.7651 13.3936C13.8408 13.7796 12.4345 14.1748 10.5253 14.1748C8.6162 14.1748 7.2099 13.7796 6.28558 13.3936C5.36126 13.0075 4.95977 12.662 4.95977 12.662C4.84719 12.5647 4.70327 12.5096 4.55342 12.5065C4.42141 12.5037 4.29177 12.5413 4.18253 12.6143C4.07328 12.6872 3.98983 12.7918 3.94379 12.9135C3.89775 13.0352 3.89138 13.1679 3.92559 13.2933C3.95979 13.4188 4.03287 13.5306 4.13466 13.6133C4.13466 13.6133 4.72372 14.0985 5.78902 14.5435C6.00211 14.6325 6.24139 14.7206 6.49579 14.8055L6.24999 15.1408C6.09949 15.346 5.85907 15.4378 5.61688 15.3898C4.52225 15.1728 2.80434 14.5117 2.10126 13.4603C2.12845 11.6433 2.5157 9.75259 3.00665 8.23813C3.26084 7.45399 3.5386 6.76974 3.79038 6.25326C4.03789 5.74554 4.29459 5.39508 4.34652 5.34343C5.12332 4.73304 6.28636 4.36646 7.114 4.19435C7.43111 4.12843 7.73678 4.29412 7.84146 4.60206C7.86867 4.68207 7.88839 4.75614 7.90932 4.83074C6.96211 5.01556 5.9054 5.33653 4.90432 5.92123C4.82956 5.96159 4.76381 6.01633 4.71101 6.0822C4.65821 6.14806 4.61943 6.2237 4.59697 6.30461C4.57452 6.38552 4.56885 6.47004 4.58031 6.55315C4.59177 6.63626 4.62013 6.71625 4.66368 6.78836C4.70723 6.86047 4.7651 6.92322 4.83383 6.97288C4.90256 7.02254 4.98076 7.05809 5.06375 7.07741C5.14675 7.09673 5.23285 7.09944 5.31693 7.08536C5.40101 7.07128 5.48134 7.0407 5.55316 6.99545C7.39942 5.91709 9.6811 5.8366 10.5253 5.8366C11.3696 5.8366 13.6513 5.91709 15.4975 6.99545C15.5694 7.0407 15.6497 7.07128 15.7338 7.08536C15.8179 7.09944 15.904 7.09673 15.9869 7.07741C16.0699 7.05809 16.1481 7.02254 16.2169 6.97288C16.2856 6.92322 16.3435 6.86047 16.387 6.78836C16.4306 6.71625 16.4589 6.63626 16.4704 6.55315C16.4818 6.47004 16.4762 6.38552 16.4537 6.30461C16.4313 6.2237 16.3925 6.14806 16.3397 6.0822C16.2869 6.01633 16.2211 5.96159 16.1464 5.92123C15.145 5.33636 14.088 5.01553 13.1406 4.83074C13.1615 4.75593 13.1811 4.68152 13.2084 4.60125C13.3 4.3318 13.5451 4.17146 13.8175 4.1797ZM7.78601 9.16668C7.39775 9.16861 7.02597 9.3433 6.75204 9.65252C6.4781 9.96175 6.3243 10.3803 6.3243 10.8167C6.3243 11.253 6.4781 11.6716 6.75204 11.9808C7.02597 12.29 7.39775 12.4647 7.78601 12.4666C8.17427 12.4647 8.54605 12.29 8.81998 11.9808C9.09392 11.6716 9.24771 11.253 9.24771 10.8167C9.24771 10.3803 9.09392 9.96175 8.81998 9.65252C8.54605 9.3433 8.17427 9.16861 7.78601 9.16668ZM13.2564 9.16668C12.8631 9.16668 12.4859 9.34227 12.2077 9.65483C11.9296 9.96739 11.7734 10.3913 11.7734 10.8333C11.7734 11.2754 11.9296 11.6993 12.2077 12.0119C12.4859 12.3244 12.8631 12.5 13.2564 12.5C13.6497 12.5 14.027 12.3244 14.3051 12.0119C14.5832 11.6993 14.7395 11.2754 14.7395 10.8333C14.7395 10.3913 14.5832 9.96739 14.3051 9.65483C14.027 9.34227 13.6497 9.16668 13.2564 9.16668Z" fill="#27AE60"/>
</g>
<defs>
<clipPath id="clip0_1734_61">
<rect width="20.339" height="20" fill="white" transform="translate(0.355835)"/>
</clipPath>
</defs>
</svg>
