<svg width="21" height="20" viewBox="0 0 21 20" fill="none" xmlns="http://www.w3.org/2000/svg">
<path d="M4.23727 2.5C3.30083 2.5 2.54236 3.24583 2.54236 4.16667V15.8333C2.54236 16.7542 3.30083 17.5 4.23727 17.5H16.1017C17.0381 17.5 17.7966 16.7542 17.7966 15.8333V4.16667C17.7966 3.24583 17.0381 2.5 16.1017 2.5H4.23727ZM4.23727 4.16667H16.1017V15.8333H4.23727V4.16667ZM6.59261 5.26367C5.86634 5.26367 5.43067 5.69298 5.43067 6.26465C5.43067 6.83632 5.86639 7.264 6.51978 7.264C7.24605 7.264 7.68173 6.83632 7.68173 6.26465C7.68173 5.69298 7.246 5.26367 6.59261 5.26367ZM5.4886 8.33333V14.1667H7.6271V8.33333H5.4886ZM9.39154 8.33333V14.1667H11.53V10.9782C11.53 10.029 12.2187 9.89258 12.4255 9.89258C12.6323 9.89258 13.1852 10.0965 13.1852 10.9782V14.1667H15.2542V10.9782C15.2542 9.14736 14.4269 8.33333 13.3921 8.33333C12.3574 8.33333 11.8055 8.67213 11.53 9.14713V8.33333H9.39154Z" fill="#27AE60"/>
</svg>
